<svg xmlns="http://www.w3.org/2000/svg" viewBox="0 0 315.91 315.93"><defs><style>.cls-1,.cls-3,.cls-4{fill:#fff;}.cls-1{stroke:#939598;stroke-miterlimit:22.93;stroke-width:0.57px;fill-rule:evenodd;}.cls-2{fill:#c01717;}.cls-4{stroke:#fff;stroke-miterlimit:10;}</style></defs><title>logo</title><g id="Layer_2" data-name="Layer 2"><g id="Layer_1-2" data-name="Layer 1"><path class="cls-1" d="M285.45,65.15A157.67,157.67,0,0,1,154.13,315.6,157.78,157.78,0,0,1,7.25,204.49,157.79,157.79,0,0,1,112.05,7.05c40.1-12.24,85-7.76,121.67,12.54,4.25,2.35,8.43,4.83,12.43,7.59a27.89,27.89,0,0,1,13.93-6.85,27.3,27.3,0,0,1,19.69,4.17,26.9,26.9,0,0,1,11.74,17.66,31.38,31.38,0,0,1,.13,9.38A26,26,0,0,1,285.45,65.15Z"/><path class="cls-2" d="M116.15,20.48a144.39,144.39,0,0,1,110.77,11.4,128.66,128.66,0,0,1,12.8,7.94,26.3,26.3,0,0,0,1.72,19.07A25.77,25.77,0,0,0,254.6,71.22a26.41,26.41,0,0,0,18.39.71A143.68,143.68,0,1,1,15.93,136.48a143.67,143.67,0,0,1,100.22-116Z"/><path class="cls-2" d="M262.55,34.15a13.17,13.17,0,0,1,9.54,2.1,13.63,13.63,0,0,1,5.59,8.34,26.65,26.65,0,0,1,0,5.13,13.41,13.41,0,0,1-10.13,10.47c-1.1.13-2.21.07-3.32.09-4.68.34-9.13-2.75-11.28-6.79a13.42,13.42,0,0,1,2-15.31A13.61,13.61,0,0,1,262.55,34.15Z"/><path class="cls-3" d="M219.1,261.43V257.6a4.87,4.87,0,0,0,3.83-1.86c1.93-2.19,1-5.28,1.22-7.92-1.66,0-3.37-.21-5.05-.12v-3.64c1.68,0,3.37.1,5.05,0,0-2.3,0-4.59,0-6.89h0c1.19,0,2.38,0,3.58,0,.07,5.23,0,10.47,0,15.7a8.85,8.85,0,0,1-8.1,8.53l-.58,0Zm0-17.37v3.64a12.07,12.07,0,0,0-2.93.5c-2.83,1.63-2.8,6.17-.37,8.16a4.68,4.68,0,0,0,3.3,1.24v3.83a8.72,8.72,0,0,1-6.87-3.43V246.68a6.85,6.85,0,0,1,3.38-2.36A19.47,19.47,0,0,1,219.1,244.06Zm-26.18.06h0c0,3.17-.08,6.35,0,9.52a8.29,8.29,0,0,0,6.28,7.52,8.4,8.4,0,0,0,8.14-2.33,8.22,8.22,0,0,0,2.29-5.58c.06-3,0-6.08,0-9.11a35.58,35.58,0,0,0-4,0c0,3,.05,6.08,0,9.11a4.38,4.38,0,0,1-8.76,0c0-3,0-6.1,0-9.14q-2-.08-4,0Zm19.31,2.56V258a8.77,8.77,0,0,1-1.76-4,9.44,9.44,0,0,1,1.76-7.33ZM166,261.73v-3.55l.34,0a5.59,5.59,0,0,0,5.2-6.06,5.68,5.68,0,0,0-5.54-5V243.5a9.11,9.11,0,0,1,6.31,15.68,8.78,8.78,0,0,1-6.31,2.55Zm11.73-16.57c1.53-1.24,3.57-1.11,5.41-1.08,2.46,0,4.93,0,7.4,0,0,1.19,0,2.38,0,3.58-3.2.1-6.4,0-9.6.06a1.59,1.59,0,0,0-1.44,2.27c.81,1.18,2.4.88,3.63.93,2.35.1,5-.47,7,1a5.2,5.2,0,0,1,.28,8.27,6.64,6.64,0,0,1-4.27,1.26c-3,0-6.09,0-9.13-.05,0-1.19,0-2.38,0-3.57,3.41-.13,6.82.12,10.21-.11,1.55-.06,2-2.53.44-3-3.22-.68-6.88.68-9.83-1.21a5.21,5.21,0,0,1-.14-8.39ZM166,243.5v3.56a5.36,5.36,0,0,0-1.43.2A5.55,5.55,0,0,0,166,258.18v3.55a8.84,8.84,0,0,1-6.13-2.36,8.74,8.74,0,0,1-2.91-5.88v-1.8a9.1,9.1,0,0,1,6.86-7.91h0a8.52,8.52,0,0,1,2.18-.28Zm-9,14,0,0,0,0Zm0-5.84v1.8a6.79,6.79,0,0,1,0-1,6.89,6.89,0,0,1,0-.79Zm0,5.77a30.56,30.56,0,0,0-2.42-2.41,7.7,7.7,0,0,1-3.49,2.62,5.55,5.55,0,1,1-1.09-10.88c1.94.05,3.41,1.45,4.57,2.86a10.6,10.6,0,0,0,2.31-2.52,8.38,8.38,0,0,0-7.62-3.9,9.15,9.15,0,0,0-8.45,6.46h0a9.13,9.13,0,0,0,10,11.65,8.85,8.85,0,0,0,6.2-3.81v-.07Zm-44.07,3.87v-3.65a5.38,5.38,0,0,0,3.45-.29,7.76,7.76,0,0,0,2.89-2.54,30.33,30.33,0,0,1,2.5,2.57,9.68,9.68,0,0,1-4.76,3.55,8.7,8.7,0,0,1-4.08.36Zm0-5.85c2.1-1.62,4.29-3.12,6.39-4.76,1-.82,2.22-1.39,2.93-2.46a8.71,8.71,0,0,0-8-5,9.07,9.07,0,0,0-1.28.06v3.63a6.34,6.34,0,0,1,4.32.7,46.69,46.69,0,0,1-4.32,3.36v4.51ZM123,251.32h0c0,3.34,0,6.68,0,10a12.75,12.75,0,0,0,3.65,0c0-3.33-.06-6.67,0-10a4.67,4.67,0,0,1,9.32.37c0,3.21,0,6.42,0,9.63a19.16,19.16,0,0,0,3.71.07c0-3.62.15-7.24-.07-10.84-.39-4.49-5.11-7.7-9.44-7C126.32,244,122.84,247.38,123,251.32Zm-10.13-8v3.63a4.89,4.89,0,0,0-2.34,1.19,5.85,5.85,0,0,0-1.84,5.79,13.4,13.4,0,0,0,3-2l1.22-.92v4.51c-.62.49-1.23,1-1.83,1.49a6.69,6.69,0,0,0,1.83.71v3.65a9,9,0,0,1-6.14-3.73,9.16,9.16,0,0,1-1-8.92h0a9.16,9.16,0,0,1,7.1-5.4ZM88.26,250.6h0a9,9,0,0,0,3.08,8.68c3.82,3.46,10.62,2.6,13.35-1.82a33.32,33.32,0,0,0-2.44-2.46c-1.07,1.3-2.35,2.64-4.12,2.82a5.68,5.68,0,0,1-6.48-5.73,5.59,5.59,0,0,1,5.72-5.31,5.75,5.75,0,0,1,4.74,2.89,21.1,21.1,0,0,0,2.55-2.54,8.8,8.8,0,0,0-7.69-3.9,9.09,9.09,0,0,0-8.71,7.37Z"/><circle class="cls-4" cx="98.46" cy="129.38" r="11.03"/><path class="cls-4" d="M119.55,121.19,100.9,160.45c-2.8,4.13-5.06,0-5.06,0L77.52,120.83h-21l15.24,33.53L69,160c-2.89,5.07-5.12.3-5.12.3L45,121.1l-20.71.09,27.44,56.24h0c1.68,3.67,5.58,5.85,9.94,5.85a11.19,11.19,0,0,0,9.76-5.52h0l6.41-11.27,6.49,11.27h0a11.38,11.38,0,0,0,20-.87h0l27.38-55.69Z"/><path class="cls-4" d="M148.65,136.13c-14.8-.5-27.4,8.2-26.82,23.16.5,12.77,7,23.15,26.82,23.15,14.81,0,26.82-7,26.82-23.15C175.47,146.5,167.77,136.79,148.65,136.13Zm-.15,38.18c-5.26,0-8.52-6.79-8.52-15.17S143.39,144,148.5,144c4.71,0,8.44,5.12,8.53,15.17C157.12,169.45,153.21,174.31,148.5,174.31Z"/><path class="cls-3" d="M230.69,153.32c-.55-12.72-12.62-17.21-25.64-17.21s-24.08,4.78-25.41,17.21h0l-.15,28.1h17.69V152.1a7.69,7.69,0,0,1,7.93-7.33c3.16,0,8,1.32,7.92,7.26v29.39h17.69l0-28.1Z"/><path class="cls-4" d="M267.49,157.07h17v21.45s-15.05,7.39-31.14,2.9c-23.3-6.49-17.26-27.58-16.55-29.9,1.2-3.9,8.93-22.54,43.66-12.74L276.64,147s-19.92-7.73-22.75,10.77c-2.62,17.09,13.71,16.88,13.71,16.88Z"/></g></g></svg>