<svg xmlns="http://www.w3.org/2000/svg" viewBox="0 0 341 341"><defs><style>.cls-1{fill:#fff;}.cls-2{fill:#34b1a4;stroke:#34b1a4;stroke-miterlimit:10;stroke-width:3px;}</style></defs><title>logo</title><g id="Layer_2" data-name="Layer 2"><g id="Layer_1-2" data-name="Layer 1"><rect class="cls-1" width="341" height="341"/><path class="cls-2" d="M56.17,230l7.34-13.34Q86.07,229.1,107.3,229.1A63.4,63.4,0,0,0,133.13,224a45.62,45.62,0,0,0,18.42-14,31.22,31.22,0,0,0,6.74-19.28,29.27,29.27,0,0,0-6.14-18.29q-6.15-8-22.16-18.56Q114.38,143.4,111,141t-8.88-6.81q-9.75-8.53-9.74-20.16,0-20.94,27.23-40.31A99.69,99.69,0,0,1,137,63.84a109.5,109.5,0,0,1,19.29-6.67A76.58,76.58,0,0,1,174,54.9q12.15,0,19.09,4.54a14.32,14.32,0,0,1,6.94,12.68q0,10-8.41,21.42t-23,21l-10.68-6a118.77,118.77,0,0,0,16.69-13.35,64.25,64.25,0,0,0,10.54-13Q189,75.85,189,70.65a9.63,9.63,0,0,0-2-6.14,12.44,12.44,0,0,0-5.74-3.87,28.08,28.08,0,0,0-9.34-1.33,69.31,69.31,0,0,0-22.36,4.07,105.27,105.27,0,0,0-22.5,10.74q-23.49,14.82-23.49,33a17.64,17.64,0,0,0,2.8,9.55q2.81,4.47,9.81,10.08t20.49,14.41q10,6.54,15.16,10.68a46.93,46.93,0,0,1,8.47,8.68,33.43,33.43,0,0,1,7.48,21.22A40.44,40.44,0,0,1,163,200.13a63.36,63.36,0,0,1-13.42,17.49q-20.28,19.09-56.33,19.09Q69.79,236.71,56.17,230Z"/><path class="cls-2" d="M176.58,286.5l25.23-125.61,12.81-5.47-8.81,38.31q9.88-19.89,18.62-28.64t19.16-8.74a15.36,15.36,0,0,1,12.68,5.87q4.67,5.88,4.67,16.16a59.34,59.34,0,0,1-4.2,21.35,68.41,68.41,0,0,1-11.82,19.89q-13.74,16.56-30.3,16.55-10.41,0-17.09-5.47l-13.74,55.8Zm23-64.61q5.6,11,15.75,11,14.69,0,25.63-23.9,8.94-19.22,8.94-32.3c0-4.72-.89-8.36-2.67-10.95a8.7,8.7,0,0,0-7.61-3.87q-8,0-16.82,10.55a109.38,109.38,0,0,0-14.28,23.23c-1.51,3.38-2.92,7-4.2,10.81s-2.52,7.74-3.68,11.74Z"/></g></g></svg>